<svg width="45" height="32" viewBox="0 0 45 32" fill="none" xmlns="http://www.w3.org/2000/svg">
<rect x="0.661765" y="0.77944" width="43.6765" height="30.4412" rx="4.63235" fill="white" stroke="#D9D9D9" stroke-width="1.32353"/>
<path fill-rule="evenodd" clip-rule="evenodd" d="M12.5064 11.16C12.1287 11.6258 11.5244 11.9931 10.92 11.9407C10.8445 11.3109 11.1404 10.6418 11.4866 10.2285C11.8643 9.74967 12.5253 9.40856 13.0604 9.38232C13.1234 10.0383 12.8779 10.6812 12.5064 11.16ZM13.054 12.0651C12.5216 12.0332 12.0358 12.232 11.6434 12.3925C11.3908 12.4958 11.177 12.5833 11.0143 12.5833C10.8318 12.5833 10.6091 12.4912 10.3591 12.3877C10.0315 12.2521 9.657 12.097 9.26426 12.1045C8.36405 12.1176 7.52679 12.6489 7.06724 13.4951C6.12296 15.1876 6.82172 17.6934 7.73453 19.071C8.18149 19.7532 8.71658 20.501 9.42164 20.4748C9.73182 20.4626 9.95495 20.3639 10.1859 20.2618C10.4517 20.1443 10.7279 20.0222 11.1591 20.0222C11.5754 20.0222 11.8395 20.1411 12.093 20.2552C12.334 20.3638 12.5655 20.4681 12.9092 20.4617C13.6394 20.4485 14.099 19.7794 14.5459 19.0972C15.0283 18.365 15.2402 17.6504 15.2724 17.542L15.2762 17.5294C15.2754 17.5286 15.2694 17.5258 15.2589 17.5208C15.0977 17.4438 13.8653 16.8559 13.8535 15.2794C13.8416 13.9561 14.831 13.2857 14.9867 13.1802C14.9962 13.1737 15.0026 13.1694 15.0055 13.1672C14.376 12.1963 13.3939 12.0913 13.054 12.0651ZM18.1094 20.3897V10.163H21.7921C23.6932 10.163 25.0215 11.5274 25.0215 13.5216C25.0215 15.5158 23.668 16.8934 21.7417 16.8934H19.6328V20.3897H18.1094ZM19.6326 11.5014H21.389C22.7109 11.5014 23.4664 12.2361 23.4664 13.5284C23.4664 14.8207 22.7109 15.5619 21.3827 15.5619H19.6326V11.5014ZM30.0513 19.163C29.6484 19.9632 28.7608 20.4684 27.8039 20.4684C26.3875 20.4684 25.3991 19.5893 25.3991 18.2643C25.3991 16.9523 26.356 16.1979 28.1249 16.0864L30.0261 15.9683V15.4042C30.0261 14.5711 29.5036 14.1185 28.5719 14.1185C27.8039 14.1185 27.2436 14.5317 27.1303 15.1615H25.758C25.802 13.8364 26.9981 12.8721 28.616 12.8721C30.3597 12.8721 31.4929 13.8233 31.4929 15.2992V20.3896H30.0827V19.163H30.0513ZM28.2125 19.2551C27.4004 19.2551 26.8842 18.8484 26.8842 18.2252C26.8842 17.5823 27.3815 17.2084 28.3321 17.1494L30.0255 17.0379V17.6151C30.0255 18.5728 29.2449 19.2551 28.2125 19.2551ZM36.1702 20.7896C35.5596 22.5804 34.8608 23.1708 33.3751 23.1708C33.2618 23.1708 32.8841 23.1577 32.796 23.1315V21.9048C32.8904 21.9179 33.1233 21.931 33.2429 21.931C33.9165 21.931 34.2942 21.6358 34.5272 20.8683L34.6657 20.4157L32.0846 12.9703H33.6773L35.4714 19.0119H35.5029L37.2971 12.9703H38.8457L36.1702 20.7896Z" fill="black"/>
</svg>
