<svg width="28" height="29" viewBox="0 0 28 29" fill="none" xmlns="http://www.w3.org/2000/svg">
<g clip-path="url(#clip0_6038_10475)">
<path d="M25.4239 22.0659C25.0156 23.0169 24.5113 23.9238 23.9189 24.7725C23.1268 25.9013 22.4787 26.6824 21.9793 27.1164C21.2053 27.828 20.3752 28.1932 19.4868 28.2136C18.8492 28.2136 18.0803 28.0322 17.1849 27.6641C16.2866 27.2978 15.4612 27.1158 14.7063 27.1158C13.9148 27.1158 13.066 27.2978 12.1578 27.6641C11.2483 28.0322 10.5157 28.2241 9.95567 28.2428C9.104 28.2795 8.25467 27.9044 7.4065 27.1164C6.86575 26.6439 6.18967 25.8354 5.37884 24.6897C4.50909 23.4659 3.79392 22.0472 3.23392 20.429C2.63425 18.682 2.33325 16.9897 2.33325 15.3517C2.33325 13.4751 2.73867 11.8569 3.55067 10.5007C4.18942 9.41103 5.03817 8.55237 6.101 7.9212C7.1437 7.29723 8.33344 6.96145 9.5485 6.9482C10.2252 6.9482 11.1124 7.15762 12.2155 7.56887C13.3151 7.98128 14.0209 8.1907 14.3307 8.1907C14.5617 8.1907 15.3463 7.9457 16.6757 7.45803C17.9333 7.00537 18.9944 6.81812 19.8636 6.8922C22.2197 7.08237 23.9895 8.01103 25.1661 9.68403C23.0597 10.9604 22.0173 12.7483 22.0383 15.0419C22.0569 16.8287 22.705 18.3156 23.979 19.4957C24.5565 20.044 25.2011 20.4675 25.918 20.768C25.7677 21.2059 25.6029 21.6388 25.4239 22.0659ZM20.0211 0.805701C20.0211 2.2057 19.5095 3.51353 18.4898 4.72337C17.259 6.16245 15.7709 6.9937 14.1568 6.86245C14.1351 6.68634 14.1242 6.50906 14.1242 6.33162C14.1242 4.98762 14.7093 3.54912 15.7488 2.37253C16.2679 1.77695 16.9271 1.2817 17.7274 0.886784C18.5266 0.497701 19.2814 0.282451 19.9919 0.245117C20.0123 0.432367 20.0211 0.619617 20.0211 0.805117V0.805701Z" fill="#1A1A1A"/>
</g>
<defs>
<clipPath id="clip0_6038_10475">
<rect width="28" height="28" fill="white" transform="translate(0 0.245117)"/>
</clipPath>
</defs>
</svg>
