<svg width="44" height="32" viewBox="0 0 44 32" fill="none" xmlns="http://www.w3.org/2000/svg">
<rect x="0.647059" y="1.11776" width="42.7059" height="29.7647" rx="4.52941" fill="white" stroke="#D9D9D9" stroke-width="1.29412"/>
<path d="M18.1177 30.1765L42.7059 22.7354V26.2942C42.7059 28.4383 40.9677 30.1765 38.8236 30.1765H18.1177Z" fill="#FD6020"/>
<path fill-rule="evenodd" clip-rule="evenodd" d="M38.0387 12.2611C39.3914 12.2611 40.1354 12.8869 40.1354 14.0689C40.203 14.9727 39.5943 15.7376 38.7827 15.8766L40.6089 18.4492H39.1885L37.6328 15.9462H37.4976V18.4492H36.3477V12.2611H38.0387ZM37.4979 15.1115H37.8361C38.5801 15.1115 38.9183 14.7638 38.9183 14.1381C38.9183 13.5818 38.5801 13.2342 37.8361 13.2342H37.4979V15.1115ZM32.3573 18.4492H35.6039V17.4063H33.5072V15.7376H35.5363V14.6946H33.5072V13.3041H35.6039V12.2611H32.3573V18.4492ZM28.9758 16.4329L27.4202 12.2611H26.2027L28.7053 18.5883H29.314L31.8165 12.2611H30.5991L28.9758 16.4329ZM15.245 15.3902C15.245 17.1285 16.5978 18.5886 18.2887 18.5886C18.8298 18.5886 19.3032 18.4495 19.7767 18.2409V16.8504C19.4385 17.2675 18.965 17.5456 18.424 17.5456C17.3418 17.5456 16.4625 16.7113 16.4625 15.5988V15.4598C16.3949 14.3473 17.2741 13.3739 18.3563 13.3044C18.8974 13.3044 19.4385 13.5825 19.7767 13.9997V12.6091C19.3709 12.331 18.8298 12.2614 18.3563 12.2614C16.5978 12.1224 15.245 13.5825 15.245 15.3902ZM13.1486 14.6251C12.4722 14.347 12.2693 14.2079 12.2693 13.8603C12.337 13.4431 12.6751 13.0955 13.081 13.165C13.4191 13.165 13.7573 13.3736 14.0279 13.6517L14.6366 12.8174C14.1631 12.4002 13.5544 12.1221 12.9457 12.1221C11.9988 12.0525 11.1871 12.8174 11.1195 13.7908V13.8603C11.1195 14.6946 11.4577 15.1813 12.5399 15.529C12.8104 15.5985 13.081 15.7376 13.3515 15.8766C13.5544 16.0157 13.6897 16.2243 13.6897 16.5024C13.6897 16.9891 13.2839 17.4063 12.878 17.4063H12.8104C12.2693 17.4063 11.7959 17.0586 11.593 16.5719L10.8489 17.3367C11.2548 18.1016 12.0664 18.5187 12.878 18.5187C13.9602 18.5883 14.8395 17.7539 14.9072 16.6415V16.4329C14.8395 15.5985 14.5013 15.1813 13.1486 14.6251ZM9.22561 18.4492H10.3754V12.2611H9.22561V18.4492ZM3.88232 12.2611H5.57324H5.91143C7.53471 12.3306 8.8198 13.7212 8.75217 15.3899C8.75217 16.2938 8.34635 17.1281 7.66998 17.7539C7.06125 18.2406 6.31725 18.5187 5.57324 18.4492H3.88232V12.2611ZM5.37058 17.406C5.91168 17.4755 6.52041 17.2669 6.92623 16.9193C7.33205 16.5021 7.53496 15.9459 7.53496 15.3201C7.53496 14.7639 7.33205 14.2076 6.92623 13.7905C6.52041 13.4428 5.91168 13.2342 5.37058 13.3038H5.0324V17.406H5.37058Z" fill="black"/>
<path fill-rule="evenodd" clip-rule="evenodd" d="M23.2263 12.1177C21.5354 12.1177 20.115 13.5083 20.115 15.316C20.115 17.0542 21.4677 18.5143 23.2263 18.5839C24.9848 18.6534 26.3376 17.1933 26.4052 15.3855C26.3376 13.5778 24.9848 12.1177 23.2263 12.1177V12.1177Z" fill="#FD6020"/>
</svg>
