<svg width="45" height="32" viewBox="0 0 45 32" fill="none" xmlns="http://www.w3.org/2000/svg">
<rect x="0.661765" y="0.77944" width="43.6765" height="30.4412" rx="4.63235" fill="white" stroke="#D9D9D9" stroke-width="1.32353"/>
<path fill-rule="evenodd" clip-rule="evenodd" d="M28.5577 24.5097C33.5141 24.5097 37.5321 20.5395 37.5321 15.6421C37.5321 10.7446 33.5141 6.77441 28.5577 6.77441C26.3364 6.77441 24.3036 7.57179 22.7365 8.89266C21.1695 7.57188 19.1368 6.77457 16.9156 6.77457C11.9592 6.77457 7.94116 10.7448 7.94116 15.6422C7.94116 20.5397 11.9592 24.5099 16.9156 24.5099C19.1369 24.5099 21.1696 23.7125 22.7367 22.3916C24.3038 23.7124 26.3365 24.5097 28.5577 24.5097Z" fill="#ED0006"/>
<path fill-rule="evenodd" clip-rule="evenodd" d="M22.7368 22.3912C24.6663 20.7647 25.8898 18.3446 25.8898 15.6421C25.8898 12.9396 24.6663 10.5194 22.7368 8.89295C24.304 7.57191 26.3369 6.77441 28.5583 6.77441C33.5147 6.77441 37.5327 10.7446 37.5327 15.6421C37.5327 20.5395 33.5147 24.5097 28.5583 24.5097C26.3369 24.5097 24.304 23.7122 22.7368 22.3912Z" fill="#F9A000"/>
<path fill-rule="evenodd" clip-rule="evenodd" d="M22.7366 22.3918C24.6662 20.7653 25.8899 18.3451 25.8899 15.6425C25.8899 12.9398 24.6662 10.5196 22.7366 8.89307C20.8069 10.5196 19.5833 12.9398 19.5833 15.6425C19.5833 18.3451 20.8069 20.7653 22.7366 22.3918Z" fill="#FF5E00"/>
</svg>
