<svg width="44" height="32" viewBox="0 0 44 32" fill="none" xmlns="http://www.w3.org/2000/svg">
<rect x="0.647059" y="1.11776" width="42.7059" height="29.7647" rx="4.52941" fill="white" stroke="#D9D9D9" stroke-width="1.29412"/>
<path fill-rule="evenodd" clip-rule="evenodd" d="M13.9117 20.9931H11.2462L9.24737 13.1431C9.15249 12.782 8.95105 12.4628 8.65474 12.3124C7.91524 11.9342 7.10037 11.6333 6.21143 11.4816V11.1793H10.5054C11.098 11.1793 11.5425 11.6333 11.6166 12.1606L12.6537 17.823L15.318 11.1793H17.9094L13.9117 20.9931ZM19.3908 20.9931H16.8734L18.9463 11.1793H21.4637L19.3908 20.9931ZM24.7206 13.8982C24.7946 13.3696 25.2391 13.0674 25.7577 13.0674C26.5725 12.9915 27.4602 13.1433 28.201 13.5201L28.6455 11.4071C27.9047 11.1049 27.0898 10.9531 26.3503 10.9531C23.907 10.9531 22.1291 12.3125 22.1291 14.1991C22.1291 15.6343 23.3884 16.3879 24.2774 16.8419C25.2391 17.2946 25.6095 17.5968 25.5354 18.0495C25.5354 18.7285 24.7946 19.0307 24.0552 19.0307C23.1662 19.0307 22.2773 18.8044 21.4637 18.4263L21.0192 20.5405C21.9082 20.9173 22.8699 21.0691 23.7588 21.0691C26.4985 21.1437 28.201 19.7856 28.201 17.7473C28.201 15.1803 24.7206 15.0299 24.7206 13.8982ZM37.0117 20.9931L35.0128 11.1793H32.8658C32.4214 11.1793 31.9769 11.4816 31.8287 11.9342L28.1274 20.9931H30.7189L31.2361 19.5592H34.4202L34.7165 20.9931H37.0117ZM33.2357 13.8226L33.9752 17.5212H31.9023L33.2357 13.8226Z" fill="#172B85"/>
</svg>
