<svg xmlns="http://www.w3.org/2000/svg" xmlns:xlink="http://www.w3.org/1999/xlink" width="183" zoomAndPan="magnify" viewBox="0 0 137.25 30.000001" height="40" preserveAspectRatio="xMidYMid meet" version="1.0"><defs><g/><clipPath id="cd9b577ca8"><path d="M 12.511719 6 L 30.65625 6 L 30.65625 23 L 12.511719 23 Z M 12.511719 6 " clip-rule="nonzero"/></clipPath></defs><g clip-path="url(#cd9b577ca8)"><path fill="#00b307" d="M 30.246094 7.96875 C 28.050781 7.96875 24.949219 8.152344 23.363281 9.738281 C 22.675781 10.421875 22.332031 11.542969 22.421875 12.808594 C 22.433594 12.976562 22.546875 13.117188 22.707031 13.171875 C 22.863281 13.222656 23.039062 13.175781 23.148438 13.046875 C 24.03125 12.011719 25.125 11.179688 26.40625 10.574219 C 26.515625 10.523438 26.644531 10.519531 26.761719 10.5625 C 26.863281 10.597656 26.945312 10.667969 26.988281 10.757812 C 27.074219 10.941406 27.046875 11.1875 26.757812 11.324219 C 26.742188 11.332031 26.726562 11.339844 26.710938 11.347656 C 26.703125 11.351562 26.695312 11.351562 26.691406 11.351562 C 23.53125 12.839844 21.980469 15.429688 21.273438 18.09375 C 20.761719 14.757812 19.675781 12.792969 18.648438 11.589844 C 17.90625 10.625 17.175781 10.117188 16.753906 9.828125 C 16.675781 9.773438 16.4375 9.613281 16.339844 9.515625 C 16.179688 9.351562 16.179688 9.09375 16.339844 8.929688 C 16.5 8.773438 16.765625 8.773438 16.941406 8.949219 C 16.984375 8.988281 17.054688 9.039062 17.144531 9.097656 L 17.21875 9.148438 C 17.816406 9.554688 18.925781 10.3125 19.910156 11.949219 C 20 12.09375 20.171875 12.171875 20.335938 12.140625 C 20.503906 12.109375 20.636719 11.980469 20.667969 11.816406 C 20.882812 10.714844 20.789062 9.085938 19.808594 8.105469 C 18.222656 6.523438 15.121094 6.339844 12.925781 6.339844 C 12.699219 6.339844 12.511719 6.523438 12.511719 6.75 C 12.511719 8.945312 12.695312 12.050781 14.28125 13.636719 C 14.941406 14.296875 15.960938 14.59375 16.972656 14.59375 C 17.800781 14.59375 18.609375 14.386719 19.230469 14.027344 C 20.078125 15.78125 20.753906 18.398438 20.753906 22.40625 C 20.753906 22.632812 20.9375 22.820312 21.164062 22.820312 C 21.390625 22.820312 21.578125 22.632812 21.578125 22.40625 C 21.578125 20.171875 21.960938 17.488281 23.382812 15.28125 C 23.957031 15.839844 24.9375 16.191406 26.027344 16.226562 C 26.082031 16.226562 26.136719 16.226562 26.1875 16.226562 C 27.296875 16.226562 28.273438 15.878906 28.890625 15.265625 C 30.476562 13.679688 30.65625 10.574219 30.65625 8.378906 C 30.660156 8.152344 30.476562 7.96875 30.246094 7.96875 Z M 30.246094 7.96875 " fill-opacity="1" fill-rule="nonzero"/></g><g fill="#000000" fill-opacity="1"><g transform="translate(38.851056, 18.508066)"><g><path d="M 7 -8.671875 L 7 -6.96875 L 4.703125 -6.96875 L 4.703125 0 L 2.59375 0 L 2.59375 -6.96875 L 0.296875 -6.96875 L 0.296875 -8.671875 Z M 7 -8.671875 "/></g></g></g><g fill="#000000" fill-opacity="1"><g transform="translate(46.14322, 18.508066)"><g><path d="M 0.34375 -3.453125 C 0.34375 -4.160156 0.472656 -4.78125 0.734375 -5.3125 C 1.003906 -5.851562 1.367188 -6.265625 1.828125 -6.546875 C 2.296875 -6.835938 2.8125 -6.984375 3.375 -6.984375 C 3.863281 -6.984375 4.289062 -6.882812 4.65625 -6.6875 C 5.019531 -6.488281 5.300781 -6.226562 5.5 -5.90625 L 5.5 -6.890625 L 7.609375 -6.890625 L 7.609375 0 L 5.5 0 L 5.5 -0.96875 C 5.300781 -0.65625 5.015625 -0.398438 4.640625 -0.203125 C 4.273438 -0.00390625 3.851562 0.09375 3.375 0.09375 C 2.8125 0.09375 2.296875 -0.0507812 1.828125 -0.34375 C 1.367188 -0.632812 1.003906 -1.046875 0.734375 -1.578125 C 0.472656 -2.117188 0.34375 -2.742188 0.34375 -3.453125 Z M 5.5 -3.4375 C 5.5 -3.96875 5.351562 -4.382812 5.0625 -4.6875 C 4.769531 -4.988281 4.414062 -5.140625 4 -5.140625 C 3.582031 -5.140625 3.226562 -4.988281 2.9375 -4.6875 C 2.644531 -4.394531 2.5 -3.984375 2.5 -3.453125 C 2.5 -2.929688 2.644531 -2.515625 2.9375 -2.203125 C 3.226562 -1.890625 3.582031 -1.734375 4 -1.734375 C 4.414062 -1.734375 4.769531 -1.882812 5.0625 -2.1875 C 5.351562 -2.5 5.5 -2.914062 5.5 -3.4375 Z M 5.5 -3.4375 "/></g></g></g><g fill="#000000" fill-opacity="1"><g transform="translate(54.521181, 18.508066)"><g><path d="M 2.875 -5.734375 C 3.125 -6.117188 3.429688 -6.421875 3.796875 -6.640625 C 4.171875 -6.859375 4.582031 -6.96875 5.03125 -6.96875 L 5.03125 -4.734375 L 4.453125 -4.734375 C 3.929688 -4.734375 3.535156 -4.617188 3.265625 -4.390625 C 3.003906 -4.160156 2.875 -3.765625 2.875 -3.203125 L 2.875 0 L 0.765625 0 L 0.765625 -6.890625 L 2.875 -6.890625 Z M 2.875 -5.734375 "/></g></g></g><g fill="#000000" fill-opacity="1"><g transform="translate(59.802138, 18.508066)"><g><path d="M 4.96875 0 L 2.875 -2.890625 L 2.875 0 L 0.765625 0 L 0.765625 -9.140625 L 2.875 -9.140625 L 2.875 -4.078125 L 4.96875 -6.890625 L 7.5625 -6.890625 L 4.703125 -3.4375 L 7.59375 0 Z M 4.96875 0 "/></g></g></g><g fill="#000000" fill-opacity="1"><g transform="translate(67.427447, 18.508066)"><g><path d="M 0.34375 -3.453125 C 0.34375 -4.160156 0.472656 -4.78125 0.734375 -5.3125 C 1.003906 -5.851562 1.367188 -6.265625 1.828125 -6.546875 C 2.296875 -6.835938 2.8125 -6.984375 3.375 -6.984375 C 3.863281 -6.984375 4.289062 -6.882812 4.65625 -6.6875 C 5.019531 -6.488281 5.300781 -6.226562 5.5 -5.90625 L 5.5 -6.890625 L 7.609375 -6.890625 L 7.609375 0 L 5.5 0 L 5.5 -0.96875 C 5.300781 -0.65625 5.015625 -0.398438 4.640625 -0.203125 C 4.273438 -0.00390625 3.851562 0.09375 3.375 0.09375 C 2.8125 0.09375 2.296875 -0.0507812 1.828125 -0.34375 C 1.367188 -0.632812 1.003906 -1.046875 0.734375 -1.578125 C 0.472656 -2.117188 0.34375 -2.742188 0.34375 -3.453125 Z M 5.5 -3.4375 C 5.5 -3.96875 5.351562 -4.382812 5.0625 -4.6875 C 4.769531 -4.988281 4.414062 -5.140625 4 -5.140625 C 3.582031 -5.140625 3.226562 -4.988281 2.9375 -4.6875 C 2.644531 -4.394531 2.5 -3.984375 2.5 -3.453125 C 2.5 -2.929688 2.644531 -2.515625 2.9375 -2.203125 C 3.226562 -1.890625 3.582031 -1.734375 4 -1.734375 C 4.414062 -1.734375 4.769531 -1.882812 5.0625 -2.1875 C 5.351562 -2.5 5.5 -2.914062 5.5 -3.4375 Z M 5.5 -3.4375 "/></g></g></g><g fill="#000000" fill-opacity="1"><g transform="translate(75.805409, 18.508066)"><g><path d="M 2.875 -5.734375 C 3.125 -6.117188 3.429688 -6.421875 3.796875 -6.640625 C 4.171875 -6.859375 4.582031 -6.96875 5.03125 -6.96875 L 5.03125 -4.734375 L 4.453125 -4.734375 C 3.929688 -4.734375 3.535156 -4.617188 3.265625 -4.390625 C 3.003906 -4.160156 2.875 -3.765625 2.875 -3.203125 L 2.875 0 L 0.765625 0 L 0.765625 -6.890625 L 2.875 -6.890625 Z M 2.875 -5.734375 "/></g></g></g><g fill="#000000" fill-opacity="1"><g transform="translate(81.086366, 18.508066)"><g><path d="M 1.828125 -7.609375 C 1.453125 -7.609375 1.144531 -7.71875 0.90625 -7.9375 C 0.675781 -8.15625 0.5625 -8.421875 0.5625 -8.734375 C 0.5625 -9.066406 0.675781 -9.34375 0.90625 -9.5625 C 1.144531 -9.78125 1.453125 -9.890625 1.828125 -9.890625 C 2.191406 -9.890625 2.488281 -9.78125 2.71875 -9.5625 C 2.957031 -9.34375 3.078125 -9.066406 3.078125 -8.734375 C 3.078125 -8.421875 2.957031 -8.15625 2.71875 -7.9375 C 2.488281 -7.71875 2.191406 -7.609375 1.828125 -7.609375 Z M 2.875 -6.890625 L 2.875 0 L 0.765625 0 L 0.765625 -6.890625 Z M 2.875 -6.890625 "/></g></g></g><g fill="#000000" fill-opacity="1"><g transform="translate(84.726274, 18.508066)"><g/></g></g><g fill="#000000" fill-opacity="1"><g transform="translate(87.342072, 18.508066)"><g><path d="M 6.015625 -4.4375 C 6.515625 -4.332031 6.914062 -4.082031 7.21875 -3.6875 C 7.519531 -3.300781 7.671875 -2.859375 7.671875 -2.359375 C 7.671875 -1.628906 7.414062 -1.050781 6.90625 -0.625 C 6.40625 -0.207031 5.703125 0 4.796875 0 L 0.765625 0 L 0.765625 -8.671875 L 4.671875 -8.671875 C 5.546875 -8.671875 6.234375 -8.46875 6.734375 -8.0625 C 7.234375 -7.65625 7.484375 -7.109375 7.484375 -6.421875 C 7.484375 -5.910156 7.347656 -5.484375 7.078125 -5.140625 C 6.804688 -4.804688 6.453125 -4.570312 6.015625 -4.4375 Z M 2.875 -5.15625 L 4.265625 -5.15625 C 4.609375 -5.15625 4.867188 -5.226562 5.046875 -5.375 C 5.234375 -5.53125 5.328125 -5.757812 5.328125 -6.0625 C 5.328125 -6.351562 5.234375 -6.578125 5.046875 -6.734375 C 4.867188 -6.890625 4.609375 -6.96875 4.265625 -6.96875 L 2.875 -6.96875 Z M 4.4375 -1.703125 C 4.789062 -1.703125 5.0625 -1.78125 5.25 -1.9375 C 5.445312 -2.101562 5.546875 -2.335938 5.546875 -2.640625 C 5.546875 -2.941406 5.441406 -3.175781 5.234375 -3.34375 C 5.035156 -3.519531 4.757812 -3.609375 4.40625 -3.609375 L 2.875 -3.609375 L 2.875 -1.703125 Z M 4.4375 -1.703125 "/></g></g></g><g fill="#000000" fill-opacity="1"><g transform="translate(95.473261, 18.508066)"><g><path d="M 0.34375 -3.453125 C 0.34375 -4.160156 0.472656 -4.78125 0.734375 -5.3125 C 1.003906 -5.851562 1.367188 -6.265625 1.828125 -6.546875 C 2.296875 -6.835938 2.8125 -6.984375 3.375 -6.984375 C 3.863281 -6.984375 4.289062 -6.882812 4.65625 -6.6875 C 5.019531 -6.488281 5.300781 -6.226562 5.5 -5.90625 L 5.5 -6.890625 L 7.609375 -6.890625 L 7.609375 0 L 5.5 0 L 5.5 -0.96875 C 5.300781 -0.65625 5.015625 -0.398438 4.640625 -0.203125 C 4.273438 -0.00390625 3.851562 0.09375 3.375 0.09375 C 2.8125 0.09375 2.296875 -0.0507812 1.828125 -0.34375 C 1.367188 -0.632812 1.003906 -1.046875 0.734375 -1.578125 C 0.472656 -2.117188 0.34375 -2.742188 0.34375 -3.453125 Z M 5.5 -3.4375 C 5.5 -3.96875 5.351562 -4.382812 5.0625 -4.6875 C 4.769531 -4.988281 4.414062 -5.140625 4 -5.140625 C 3.582031 -5.140625 3.226562 -4.988281 2.9375 -4.6875 C 2.644531 -4.394531 2.5 -3.984375 2.5 -3.453125 C 2.5 -2.929688 2.644531 -2.515625 2.9375 -2.203125 C 3.226562 -1.890625 3.582031 -1.734375 4 -1.734375 C 4.414062 -1.734375 4.769531 -1.882812 5.0625 -2.1875 C 5.351562 -2.5 5.5 -2.914062 5.5 -3.4375 Z M 5.5 -3.4375 "/></g></g></g><g fill="#000000" fill-opacity="1"><g transform="translate(103.851223, 18.508066)"><g><path d="M 2.734375 -1.734375 L 5.734375 -1.734375 L 5.734375 0 L 0.375 0 L 0.375 -1.671875 L 3.25 -5.140625 L 0.40625 -5.140625 L 0.40625 -6.890625 L 5.671875 -6.890625 L 5.671875 -5.203125 Z M 2.734375 -1.734375 "/></g></g></g><g fill="#000000" fill-opacity="1"><g transform="translate(109.971205, 18.508066)"><g><path d="M 0.34375 -3.453125 C 0.34375 -4.160156 0.472656 -4.78125 0.734375 -5.3125 C 1.003906 -5.851562 1.367188 -6.265625 1.828125 -6.546875 C 2.296875 -6.835938 2.8125 -6.984375 3.375 -6.984375 C 3.863281 -6.984375 4.289062 -6.882812 4.65625 -6.6875 C 5.019531 -6.488281 5.300781 -6.226562 5.5 -5.90625 L 5.5 -6.890625 L 7.609375 -6.890625 L 7.609375 0 L 5.5 0 L 5.5 -0.96875 C 5.300781 -0.65625 5.015625 -0.398438 4.640625 -0.203125 C 4.273438 -0.00390625 3.851562 0.09375 3.375 0.09375 C 2.8125 0.09375 2.296875 -0.0507812 1.828125 -0.34375 C 1.367188 -0.632812 1.003906 -1.046875 0.734375 -1.578125 C 0.472656 -2.117188 0.34375 -2.742188 0.34375 -3.453125 Z M 5.5 -3.4375 C 5.5 -3.96875 5.351562 -4.382812 5.0625 -4.6875 C 4.769531 -4.988281 4.414062 -5.140625 4 -5.140625 C 3.582031 -5.140625 3.226562 -4.988281 2.9375 -4.6875 C 2.644531 -4.394531 2.5 -3.984375 2.5 -3.453125 C 2.5 -2.929688 2.644531 -2.515625 2.9375 -2.203125 C 3.226562 -1.890625 3.582031 -1.734375 4 -1.734375 C 4.414062 -1.734375 4.769531 -1.882812 5.0625 -2.1875 C 5.351562 -2.5 5.5 -2.914062 5.5 -3.4375 Z M 5.5 -3.4375 "/></g></g></g><g fill="#000000" fill-opacity="1"><g transform="translate(118.349167, 18.508066)"><g><path d="M 2.875 -5.734375 C 3.125 -6.117188 3.429688 -6.421875 3.796875 -6.640625 C 4.171875 -6.859375 4.582031 -6.96875 5.03125 -6.96875 L 5.03125 -4.734375 L 4.453125 -4.734375 C 3.929688 -4.734375 3.535156 -4.617188 3.265625 -4.390625 C 3.003906 -4.160156 2.875 -3.765625 2.875 -3.203125 L 2.875 0 L 0.765625 0 L 0.765625 -6.890625 L 2.875 -6.890625 Z M 2.875 -5.734375 "/></g></g></g></svg>