<svg width="24" height="24" viewBox="0 0 24 24" fill="none" xmlns="http://www.w3.org/2000/svg">
<g clip-path="url(#clip0_5452_10303)">
<path d="M8.56854 8.42362C8.37994 8.283 8.11407 8.32383 7.97473 8.51243L6.96453 9.87767C6.82482 10.0659 6.86474 10.3321 7.05315 10.4715L8.41857 11.482C8.492 11.5364 8.58081 11.5654 8.67126 11.5654C8.69213 11.5654 8.71319 11.5637 8.7337 11.5608C8.84539 11.5441 8.94555 11.4833 9.0122 11.3931L10.0226 10.0273C10.1623 9.83867 10.1224 9.5728 9.93378 9.43345L8.56854 8.42362ZM8.58191 10.5466L7.89947 10.0417L8.40448 9.35929L9.08691 9.86412L8.58191 10.5466Z" fill="#999999"/>
<path d="M21.3804 9.63262L19.7146 9.3001C19.4851 9.25176 19.261 9.40337 19.215 9.63353L18.8825 11.2994C18.8368 11.529 18.9858 11.7524 19.216 11.7988L20.8818 12.1313C20.9095 12.1373 20.9379 12.1399 20.965 12.1399C21.1635 12.1399 21.3409 12.0002 21.3808 11.798L21.7133 10.1319C21.7597 9.90233 21.6106 9.67894 21.3804 9.63262ZM20.6314 11.2154L19.7986 11.0489L19.965 10.2162L20.7978 10.3826L20.6314 11.2154Z" fill="#999999"/>
<path d="M16.3694 10.4017C16.3057 10.1757 16.0695 10.0437 15.8457 10.1087L14.2108 10.5703C13.9848 10.6335 13.8535 10.8684 13.9176 11.0938L14.3792 12.7288C14.4319 12.9157 14.6022 13.0384 14.7874 13.0384C14.826 13.0384 14.8646 13.0333 14.9029 13.0223L16.5378 12.5607C16.7638 12.4973 16.8951 12.2626 16.8308 12.037L16.3694 10.4017ZM15.0809 12.089L14.8503 11.2714L15.6677 11.0409L15.8984 11.8583L15.0809 12.089Z" fill="#999999"/>
<path d="M24 11.5862C24 10.9631 23.6382 10.4081 22.9235 9.93294C22.929 9.86794 22.9319 9.80385 22.9319 9.74013C22.9319 8.45253 21.8839 7.40443 20.5963 7.40443C20.2434 7.40443 19.9016 7.48427 19.5877 7.63918C19.1651 6.97542 18.4276 6.55519 17.6235 6.55519C17.1806 6.55519 16.7538 6.67989 16.3848 6.91316C15.989 6.47023 15.4378 6.18953 14.8455 6.13899L13.791 4.88655C13.7188 4.80031 13.6148 4.74648 13.5026 4.73677C13.4337 4.72816 13.3689 4.74391 13.3081 4.76991C13.2673 4.78731 13.227 4.80598 13.1926 4.83528L12.4329 5.47487L12.1408 5.72023C12.0536 5.71053 11.9713 5.70577 11.8907 5.70577C11.2515 5.70577 10.6437 5.9482 10.1754 6.38142C9.85052 6.21626 9.49512 6.13057 9.13019 6.13057C8.4657 6.13057 7.83508 6.42189 7.39636 6.91316C7.02722 6.68007 6.60059 6.55519 6.15765 6.55519C5.49335 6.55519 4.86877 6.84175 4.42969 7.33485L2.50342 6.62257C2.28387 6.54018 2.03888 6.65315 1.95813 6.87361L1.49066 8.13649C1.07611 8.57265 0.849426 9.13844 0.849426 9.74013C0.849426 9.85127 0.858765 9.96223 0.878174 10.0794C0.295166 10.5211 0 11.0264 0 11.5862C0 13.1931 1.30499 14.5091 2.97729 14.6137L3.92688 15.5233C4.43994 16.015 4.66974 16.3114 5.01709 16.7611C5.13208 16.9102 5.25824 17.0733 5.41022 17.2636C6.54767 18.6879 7.68347 19.2951 9.20856 19.2951H14.9767C16.5022 19.2951 17.6382 18.6874 18.7749 17.2636C18.9261 17.0742 19.0527 16.9107 19.1677 16.7617C19.5156 16.312 19.7452 16.015 20.2582 15.5233L21.2087 14.6124C22.8131 14.5075 24 13.2407 24 11.5862ZM13.4149 5.75795L13.9618 6.40779L13.312 6.95436L12.7654 6.30507L13.4149 5.75795ZM4.15228 8.13777L3.58081 9.68355L2.03503 9.11208L2.60651 7.5663L4.15228 8.13777ZM19.6714 14.9105C19.1125 15.4459 18.854 15.7797 18.496 16.2422C18.3834 16.3883 18.2595 16.548 18.1117 16.7335C17.1405 17.9498 16.2321 18.4459 14.9767 18.4459H9.20892C7.95355 18.4459 7.04517 17.9498 6.07397 16.7335C5.92529 16.5476 5.8017 16.3874 5.68927 16.2418C5.33167 15.7793 5.07349 15.4455 4.51465 14.9105L4.11584 14.5283C4.24786 14.5003 4.37531 14.4646 4.50018 14.4251C4.53571 14.4141 4.57013 14.4013 4.60492 14.3894C4.69757 14.3575 4.78766 14.3227 4.87555 14.2848C4.90906 14.2705 4.94257 14.2568 4.97534 14.2416C5.20367 14.1354 5.41388 14.0092 5.60248 13.8666C5.62976 13.8463 5.65503 13.8245 5.6814 13.8032C5.74896 13.7485 5.8136 13.6915 5.87476 13.6326C5.89893 13.6091 5.92346 13.5863 5.94653 13.5625C6.02509 13.481 6.09888 13.3973 6.16443 13.309C6.74432 14.0929 7.85962 14.6246 9.13696 14.6246C10.4145 14.6246 11.5296 14.0929 12.1097 13.309C12.6898 14.0929 13.8049 14.6246 15.0824 14.6246C16.3552 14.6246 17.4668 14.0971 18.0487 13.3178C18.1132 13.4063 18.1862 13.4899 18.264 13.5711C18.2856 13.5934 18.3085 13.6152 18.3311 13.6372C18.3931 13.698 18.4585 13.7562 18.5277 13.8122C18.5515 13.8313 18.5744 13.8508 18.5986 13.8695C18.7863 14.0127 18.9965 14.1383 19.2263 14.244C19.255 14.2577 19.2852 14.27 19.3151 14.2826C19.4072 14.3222 19.5015 14.3588 19.5987 14.3919C19.6293 14.4024 19.6589 14.413 19.6901 14.4229C19.8144 14.4619 19.9418 14.4976 20.0739 14.5256L19.6714 14.9105ZM21.0104 13.7736C19.615 13.7672 18.4794 13.0058 18.4794 12.0758C18.4794 11.8409 18.2897 11.651 18.0547 11.651C17.8198 11.651 17.6301 11.8409 17.6301 12.0758C17.6301 12.9965 16.463 13.7745 15.082 13.7745C13.701 13.7745 12.5341 12.9965 12.5341 12.0758C12.5341 11.8409 12.3442 11.651 12.1093 11.651C11.8746 11.651 11.6847 11.8409 11.6847 12.0758C11.6847 12.9965 10.5178 13.7745 9.13678 13.7745C7.75562 13.7745 6.58868 12.9965 6.58868 12.0758C6.58868 11.8409 6.3988 11.651 6.16406 11.651C5.92914 11.651 5.73944 11.8409 5.73944 12.0758C5.73944 12.9965 4.57233 13.7745 3.15875 13.7745C1.88507 13.7745 0.849426 12.793 0.849426 11.586C0.849426 11.2599 1.09698 10.9354 1.58533 10.6212C1.74243 10.5202 1.81494 10.3283 1.76404 10.1481C1.73767 10.056 1.72211 9.97487 1.71185 9.89796L3.68481 10.6276C3.73315 10.646 3.78296 10.6544 3.83221 10.6544C4.00452 10.6544 4.1673 10.5485 4.23047 10.377L5.09692 8.03468C5.11908 7.97591 5.12402 7.91402 5.11908 7.85286C5.3941 7.57216 5.76324 7.4048 6.1582 7.4048C6.54218 7.4048 6.90729 7.5533 7.18671 7.82228C7.28101 7.91237 7.40936 7.95522 7.54083 7.93727C7.67047 7.91896 7.78381 7.84224 7.84973 7.72926C8.12054 7.26033 8.6001 6.98 9.13129 6.98C9.44128 6.98 9.74194 7.07906 10.0005 7.26674C10.1836 7.39912 10.4372 7.36525 10.5793 7.19075C10.9021 6.79286 11.3714 6.56471 11.8691 6.55794L12.9368 7.82649C13.0204 7.92629 13.1406 7.97755 13.262 7.97755C13.3585 7.97755 13.4551 7.94496 13.535 7.87831L14.5966 6.98476C14.6155 6.98347 14.6332 6.98 14.6519 6.98C15.1831 6.98 15.6627 7.25996 15.9335 7.72926C15.9988 7.84261 16.1127 7.91896 16.2422 7.93727C16.3744 7.95723 16.5022 7.91274 16.5965 7.82228C16.8759 7.55293 17.241 7.4048 17.625 7.4048C18.2459 7.4048 18.8057 7.80177 19.0175 8.39174C19.0638 8.52083 19.1691 8.61879 19.3011 8.65669C19.4321 8.69405 19.5738 8.66603 19.6816 8.5807C19.9508 8.36702 20.2676 8.25368 20.5977 8.25368C21.4173 8.25368 22.084 8.92036 22.084 9.73994C22.084 9.84193 22.0726 9.94502 22.0485 10.056C22.0085 10.2365 22.0909 10.4216 22.251 10.5141C22.849 10.8595 23.1522 11.2196 23.1522 11.5856C23.1508 12.8275 22.2288 13.7677 21.0104 13.7736Z" fill="#999999"/>
</g>
<defs>
<clipPath id="clip0_5452_10303">
<rect width="24" height="24" fill="white"/>
</clipPath>
</defs>
</svg>
