<svg width="40" height="41" viewBox="0 0 40 41" fill="none" xmlns="http://www.w3.org/2000/svg">
<path d="M15.833 17.6667C14.949 17.6667 14.1011 18.0179 13.476 18.643C12.8509 19.2681 12.4997 20.1159 12.4997 21C12.4997 21.8841 12.8509 22.7319 13.476 23.357C14.1011 23.9821 14.949 24.3333 15.833 24.3333H17.4997C17.7207 24.3333 17.9326 24.4211 18.0889 24.5774C18.2452 24.7337 18.333 24.9457 18.333 25.1667C18.333 25.3877 18.2452 25.5996 18.0889 25.7559C17.9326 25.9122 17.7207 26 17.4997 26H15.833C14.5069 26 13.2352 25.4732 12.2975 24.5355C11.3598 23.5979 10.833 22.3261 10.833 21C10.833 19.6739 11.3598 18.4021 12.2975 17.4645C13.2352 16.5268 14.5069 16 15.833 16H17.4997C17.7207 16 17.9326 16.0878 18.0889 16.2441C18.2452 16.4004 18.333 16.6123 18.333 16.8333C18.333 17.0543 18.2452 17.2663 18.0889 17.4226C17.9326 17.5789 17.7207 17.6667 17.4997 17.6667H15.833ZM21.6663 16.8333C21.6663 16.6123 21.7541 16.4004 21.9104 16.2441C22.0667 16.0878 22.2787 16 22.4997 16H24.1663C25.4924 16 26.7642 16.5268 27.7019 17.4645C28.6396 18.4021 29.1663 19.6739 29.1663 21C29.1663 22.3261 28.6396 23.5979 27.7019 24.5355C26.7642 25.4732 25.4924 26 24.1663 26H22.4997C22.2787 26 22.0667 25.9122 21.9104 25.7559C21.7541 25.5996 21.6663 25.3877 21.6663 25.1667C21.6663 24.9457 21.7541 24.7337 21.9104 24.5774C22.0667 24.4211 22.2787 24.3333 22.4997 24.3333H24.1663C25.0504 24.3333 25.8982 23.9821 26.5234 23.357C27.1485 22.7319 27.4997 21.8841 27.4997 21C27.4997 20.1159 27.1485 19.2681 26.5234 18.643C25.8982 18.0179 25.0504 17.6667 24.1663 17.6667H22.4997C22.2787 17.6667 22.0667 17.5789 21.9104 17.4226C21.7541 17.2663 21.6663 17.0543 21.6663 16.8333ZM15.833 21C15.833 20.779 15.9208 20.567 16.0771 20.4107C16.2334 20.2545 16.4453 20.1667 16.6663 20.1667H23.333C23.554 20.1667 23.766 20.2545 23.9223 20.4107C24.0785 20.567 24.1663 20.779 24.1663 21C24.1663 21.221 24.0785 21.433 23.9223 21.5893C23.766 21.7455 23.554 21.8333 23.333 21.8333H16.6663C16.4453 21.8333 16.2334 21.7455 16.0771 21.5893C15.9208 21.433 15.833 21.221 15.833 21Z" fill="#FFFFFF"/>
</svg>
