<svg width="40" height="41" viewBox="0 0 40 41" fill="none" xmlns="http://www.w3.org/2000/svg">
<g clip-path="url(#clip0_53_1060)">
<path d="M28.982 16.7921C28.9398 15.8357 28.7852 15.1781 28.5636 14.6084C28.335 14.0036 27.9834 13.4621 27.5227 13.012C27.0726 12.5549 26.5276 12.1997 25.9298 11.9747C25.3568 11.7532 24.7027 11.5985 23.7463 11.5563C22.7827 11.5106 22.4768 11.5 20.033 11.5C17.5892 11.5 17.2833 11.5106 16.3233 11.5528C15.3669 11.5949 14.7094 11.7497 14.1397 11.9711C13.5348 12.1997 12.9934 12.5513 12.5433 13.012C12.0861 13.4621 11.7311 14.0072 11.506 14.6049C11.2844 15.1781 11.1297 15.8321 11.0876 16.7885C11.0418 17.752 11.0312 18.0579 11.0312 20.5018C11.0312 22.9456 11.0418 23.2515 11.084 24.2115C11.1262 25.1679 11.281 25.8254 11.5025 26.3952C11.7311 26.9999 12.0861 27.5414 12.5433 27.9915C12.9934 28.4486 13.5384 28.8038 14.1362 29.0288C14.7094 29.2504 15.3633 29.405 16.3199 29.4472C17.2797 29.4895 17.5857 29.5 20.0296 29.5C22.4734 29.5 22.7793 29.4895 23.7393 29.4472C24.6957 29.405 25.3532 29.2504 25.9228 29.0288C27.1325 28.5611 28.0889 27.6047 28.5566 26.3952C28.778 25.822 28.9328 25.1679 28.975 24.2115C29.0172 23.2515 29.0277 22.9456 29.0277 20.5018C29.0277 18.0579 29.0242 17.752 28.982 16.7921ZM27.3611 24.1412C27.3223 25.0202 27.1747 25.4949 27.0516 25.8114C26.7491 26.5956 26.1268 27.2179 25.3426 27.5204C25.0261 27.6435 24.548 27.7911 23.6724 27.8297C22.723 27.872 22.4382 27.8825 20.0366 27.8825C17.6349 27.8825 17.3466 27.872 16.4006 27.8297C15.5215 27.7911 15.0468 27.6435 14.7304 27.5204C14.3401 27.3762 13.9849 27.1476 13.6966 26.8487C13.3978 26.5568 13.1692 26.2052 13.025 25.815C12.9019 25.4985 12.7542 25.0202 12.7156 24.1447C12.6733 23.1953 12.6629 22.9104 12.6629 20.5088C12.6629 18.1071 12.6733 17.8188 12.7156 16.873C12.7542 15.9939 12.9019 15.5192 13.025 15.2027C13.1692 14.8124 13.3978 14.4573 13.7002 14.1688C13.992 13.87 14.3436 13.6414 14.7339 13.4973C15.0504 13.3742 15.5287 13.2266 16.4042 13.1878C17.3536 13.1457 17.6385 13.1351 20.04 13.1351C22.4452 13.1351 22.73 13.1457 23.6759 13.1878C24.555 13.2266 25.0297 13.3742 25.3462 13.4973C25.7364 13.6414 26.0916 13.87 26.3799 14.1688C26.6788 14.4607 26.9074 14.8124 27.0516 15.2027C27.1747 15.5192 27.3223 15.9973 27.3611 16.873C27.4032 17.8224 27.4138 18.1071 27.4138 20.5088C27.4138 22.9104 27.4032 23.1918 27.3611 24.1412Z" fill="#FFFFFF"/>
<path d="M20.0331 15.8778C17.4804 15.8778 15.4092 17.9489 15.4092 20.5017C15.4092 23.0546 17.4804 25.1257 20.0331 25.1257C22.586 25.1257 24.6571 23.0546 24.6571 20.5017C24.6571 17.9489 22.586 15.8778 20.0331 15.8778ZM20.0331 23.5012C18.377 23.5012 17.0337 22.158 17.0337 20.5017C17.0337 18.8455 18.377 17.5023 20.0331 17.5023C21.6894 17.5023 23.0326 18.8455 23.0326 20.5017C23.0326 22.158 21.6894 23.5012 20.0331 23.5012Z" fill="#FFFFFF"/>
<path d="M25.9199 15.695C25.9199 16.2911 25.4365 16.7745 24.8402 16.7745C24.2441 16.7745 23.7607 16.2911 23.7607 15.695C23.7607 15.0987 24.2441 14.6155 24.8402 14.6155C25.4365 14.6155 25.9199 15.0987 25.9199 15.695Z" fill="#FFFFFF"/>
</g>
<defs>
<clipPath id="clip0_53_1060">
<rect width="18" height="18" fill="white" transform="translate(11 11.5)"/>
</clipPath>
</defs>
</svg>
