<svg width="40" height="41" viewBox="0 0 40 41" fill="none" xmlns="http://www.w3.org/2000/svg">
<circle cx="20" cy="20.5" r="20" fill="#00B307"/>
<g clip-path="url(#clip0_53_1056)">
<path d="M27.9845 17.2041C27.9471 16.3539 27.8096 15.7695 27.6126 15.263C27.4095 14.7254 27.0969 14.2441 26.6874 13.844C26.2873 13.4377 25.8028 13.122 25.2715 12.922C24.7621 12.725 24.1807 12.5876 23.3306 12.5501C22.4741 12.5094 22.2022 12.5 20.0299 12.5C17.8576 12.5 17.5857 12.5094 16.7324 12.5469C15.8822 12.5844 15.2978 12.722 14.7914 12.9188C14.2537 13.122 13.7724 13.4345 13.3723 13.844C12.966 14.2441 12.6504 14.7286 12.4503 15.26C12.2533 15.7695 12.1159 16.3507 12.0784 17.2009C12.0377 18.0574 12.0283 18.3293 12.0283 20.5016C12.0283 22.6739 12.0377 22.9458 12.0752 23.7991C12.1127 24.6492 12.2503 25.2337 12.4472 25.7402C12.6504 26.2777 12.966 26.759 13.3723 27.1591C13.7724 27.5655 14.2569 27.8812 14.7883 28.0812C15.2978 28.2781 15.879 28.4156 16.7293 28.4531C17.5825 28.4907 17.8545 28.5 20.0268 28.5C22.1991 28.5 22.471 28.4907 23.3243 28.4531C24.1745 28.4156 24.7589 28.2781 25.2653 28.0812C26.3405 27.6655 27.1907 26.8153 27.6064 25.7402C27.8032 25.2307 27.9408 24.6492 27.9783 23.7991C28.0158 22.9458 28.0252 22.6739 28.0252 20.5016C28.0252 18.3293 28.022 18.0574 27.9845 17.2041ZM26.5437 23.7366C26.5093 24.518 26.378 24.9399 26.2686 25.2213C25.9998 25.9183 25.4466 26.4715 24.7495 26.7403C24.4682 26.8497 24.0432 26.981 23.2649 27.0153C22.421 27.0529 22.1679 27.0622 20.033 27.0622C17.8982 27.0622 17.642 27.0529 16.8011 27.0153C16.0197 26.981 15.5977 26.8497 15.3164 26.7403C14.9696 26.6121 14.6538 26.409 14.3976 26.1433C14.1319 25.8839 13.9287 25.5713 13.8005 25.2244C13.6911 24.9431 13.5599 24.518 13.5256 23.7398C13.488 22.8958 13.4787 22.6426 13.4787 20.5078C13.4787 18.373 13.488 18.1167 13.5256 17.276C13.5599 16.4946 13.6911 16.0726 13.8005 15.7913C13.9287 15.4443 14.1319 15.1287 14.4007 14.8723C14.6601 14.6066 14.9726 14.4035 15.3196 14.2754C15.6009 14.166 16.026 14.0347 16.8043 14.0003C17.6482 13.9628 17.9014 13.9534 20.0361 13.9534C22.1741 13.9534 22.4272 13.9628 23.268 14.0003C24.0494 14.0347 24.4714 14.166 24.7527 14.2754C25.0996 14.4035 25.4153 14.6066 25.6716 14.8723C25.9373 15.1318 26.1404 15.4443 26.2686 15.7913C26.378 16.0726 26.5093 16.4976 26.5437 17.276C26.5812 18.1199 26.5906 18.373 26.5906 20.5078C26.5906 22.6426 26.5812 22.8927 26.5437 23.7366Z" fill="white"/>
<path d="M20.0301 16.3914C17.761 16.3914 15.9199 18.2323 15.9199 20.5016C15.9199 22.7708 17.761 24.6117 20.0301 24.6117C22.2993 24.6117 24.1403 22.7708 24.1403 20.5016C24.1403 18.2323 22.2993 16.3914 20.0301 16.3914ZM20.0301 23.1677C18.558 23.1677 17.3639 21.9738 17.3639 20.5016C17.3639 19.0293 18.558 17.8354 20.0301 17.8354C21.5023 17.8354 22.6963 19.0293 22.6963 20.5016C22.6963 21.9738 21.5023 23.1677 20.0301 23.1677Z" fill="white"/>
<path d="M25.262 16.2289C25.262 16.7588 24.8323 17.1884 24.3023 17.1884C23.7724 17.1884 23.3428 16.7588 23.3428 16.2289C23.3428 15.6989 23.7724 15.2693 24.3023 15.2693C24.8323 15.2693 25.262 15.6989 25.262 16.2289Z" fill="white"/>
</g>
<defs>
<clipPath id="clip0_53_1056">
<rect width="16" height="16" fill="white" transform="translate(12 12.5)"/>
</clipPath>
</defs>
</svg>
