<svg width="40" height="41" viewBox="0 0 40 41" fill="none" xmlns="http://www.w3.org/2000/svg">
<g clip-path="url(#clip0_53_1061)">
<path d="M20.2445 11.5C15.3111 11.5 12.6875 14.6614 12.6875 18.1086C12.6875 19.7073 13.5808 21.7008 15.0107 22.3331C15.2279 22.431 15.346 22.3894 15.3944 22.188C15.4371 22.035 15.625 21.2981 15.7161 20.9504C15.7443 20.8391 15.7296 20.7423 15.6396 20.6377C15.1649 20.0887 14.788 19.0885 14.788 18.1502C14.788 15.746 16.6994 13.4115 19.952 13.4115C22.7646 13.4115 24.7323 15.2386 24.7323 17.8521C24.7323 20.8053 23.1696 22.8484 21.1389 22.8484C20.015 22.8484 19.1779 21.9664 19.4434 20.8751C19.7641 19.5756 20.393 18.1783 20.393 17.2411C20.393 16.4007 19.9182 15.7055 18.9484 15.7055C17.8042 15.7055 16.8761 16.8384 16.8761 18.3594C16.8761 19.3259 17.2181 19.9784 17.2181 19.9784C17.2181 19.9784 16.0863 24.5506 15.8759 25.4045C15.5204 26.8502 15.9243 29.1914 15.9591 29.3928C15.9805 29.5042 16.1054 29.5391 16.1752 29.4479C16.2865 29.3017 17.6546 27.3497 18.0382 25.9389C18.1777 25.4248 18.7504 23.34 18.7504 23.34C19.1273 24.0207 20.2152 24.5911 21.374 24.5911C24.8212 24.5911 27.312 21.5613 27.312 17.8014C27.2997 14.1968 24.2148 11.5 20.2445 11.5Z" fill="#FFFFFF"/>
</g>
<defs>
<clipPath id="clip0_53_1061">
<rect width="18" height="18" fill="white" transform="translate(11 11.5)"/>
</clipPath>
</defs>
</svg>
